<svg width="512" height="512" viewBox="0 0 512 512" fill="none" xmlns="http://www.w3.org/2000/svg">
  <rect width="512" height="512" rx="120" fill="#0F172A"/>
  <path d="M112 148C112 128.118 128.118 112 148 112H246V208H196C176.118 208 160 224.118 160 244V268C160 287.882 176.118 304 196 304H246V400H148C128.118 400 112 383.882 112 364V148Z" fill="#1E293B"/>
  <path d="M400 364C400 383.882 383.882 400 364 400H266V304H316C335.882 304 352 287.882 352 268V244C352 224.118 335.882 208 316 208H266V112H364C383.882 112 400 128.118 400 148V364Z" fill="#1E293B"/>
  <path d="M246 112H266V400H246V112Z" fill="#22D3EE"/>
  <path d="M246 208H316C335.882 208 352 224.118 352 244V268C352 287.882 335.882 304 316 304H246V208Z" fill="#F59E0B"/>
  <path d="M266 208H196C176.118 208 160 224.118 160 244V268C160 287.882 176.118 304 196 304H266V208Z" fill="#22D3EE" opacity="0.92"/>
</svg>
