<svg width="512" height="512" viewBox="0 0 512 512" fill="none" xmlns="http://www.w3.org/2000/svg">
  <rect width="512" height="512" rx="120" fill="#0F172A"/>
  <rect x="116" y="140" width="280" height="70" rx="28" fill="#1E293B"/>
  <rect x="116" y="221" width="280" height="70" rx="28" fill="#334155"/>
  <rect x="116" y="302" width="280" height="70" rx="28" fill="#475569"/>
  <path d="M256 126C271.464 126 284 138.536 284 154V358C284 373.464 271.464 386 256 386C240.536 386 228 373.464 228 358V154C228 138.536 240.536 126 256 126Z" fill="#22D3EE"/>
  <circle cx="256" cy="174" r="11" fill="#F8FAFC"/>
  <circle cx="256" cy="256" r="11" fill="#F8FAFC"/>
  <circle cx="256" cy="338" r="11" fill="#F8FAFC"/>
  <path d="M140 175H212" stroke="#F59E0B" stroke-width="14" stroke-linecap="round"/>
  <path d="M300 175H372" stroke="#F59E0B" stroke-width="14" stroke-linecap="round"/>
  <path d="M140 256H212" stroke="#F59E0B" stroke-width="14" stroke-linecap="round" opacity="0.75"/>
  <path d="M300 256H372" stroke="#F59E0B" stroke-width="14" stroke-linecap="round" opacity="0.75"/>
  <path d="M140 337H212" stroke="#F59E0B" stroke-width="14" stroke-linecap="round" opacity="0.55"/>
  <path d="M300 337H372" stroke="#F59E0B" stroke-width="14" stroke-linecap="round" opacity="0.55"/>
</svg>
